# xmcd
#
# Track frame offsets:
# 150
# 20778
# 40759
# 58828
# 72824
# 90205
# 108911
# 124749
# 138804
# 154726
# 182279
#
# Disc length: 2685 seconds
#
#
# Revision: 0
# Processed by: cddbd v1.5.2PL0 Copyright (c) Steve Scherf et al.
# Submitted via: FreeRIP 2.945 
#
DISCID=840a7b0b
DTITLE=Shooter Jennings - Put the O Back in Country
DYEAR=1900
DGENRE=country
TTITLE0=Put the O Back in Country
TTITLE1=4th of July
TTITLE2=Lonesome Blues
TTITLE3=Solid Country Gold
TTITLE4=Busted in Baylor County
TTITLE5=Sweet Savannah
TTITLE6=Steady at the Wheel
TTITLE7=Manifesto No. 1
TTITLE8=The Letter
TTITLE9=Southern Comfort
TTITLE10=Daddy's Farm
EXTD=
EXTT0=
EXTT1=
EXTT2=
EXTT3=
EXTT4=
EXTT5=
EXTT6=
EXTT7=
EXTT8=
EXTT9=
EXTT10=
PLAYORDER=
